# xmcd
# 
# Track frame offsets:
#     150
#     17626
#     35370
#     64326
#     80107
#     94701
#     117433
#     139592
#     156603
#     176333
#     192120
#     210792
#     225987
#     245027
#     259178
# 
# Disc length: 3669
# 
# Revision: 0
# Processed by: cddbd v1.5.2PL0 Copyright (c) Steve Scherf et al.
# Submitted via: fre:ac v1.0.17
# 
DISCID=c70e530f
DTITLE=Oscar Benton - Best of
DYEAR=199
DGENRE=Blues
TTITLE0=Bensonhurst blues
TTITLE1=Busted
TTITLE2=St Louis blues
TTITLE3=I believe in love
TTITLE4=Basin street blues
TTITLE5=Helpless
TTITLE6=If you go away
TTITLE7=It ain't nobody's business
TTITLE8=I feel so good
TTITLE9=Not the same dreams anymore
TTITLE10=How can I juste start again
TTITLE11=I can't leave you
TTITLE12=Prisoner of love
TTITLE13=My petite fleur
TTITLE14=The day I got rid of the blues
EXTD=
EXTT0=
EXTT1=
EXTT2=
EXTT3=
EXTT4=
EXTT5=
EXTT6=
EXTT7=
EXTT8=
EXTT9=
EXTT10=
EXTT11=
EXTT12=
EXTT13=
EXTT14=
PLAYORDER=
